<svg width="51" height="16" viewBox="0 0 51 16" fill="none" xmlns="http://www.w3.org/2000/svg">
<path id="Arrow 1" d="M1.98752 8.70146C1.43524 8.70146 0.987519 8.25374 0.987518 7.70146C0.987517 7.14917 1.43523 6.70146 1.98752 6.70146L1.98752 8.70146ZM50.6944 6.99424C51.085 7.38477 51.085 8.01793 50.6944 8.40846L44.3305 14.7724C43.94 15.163 43.3068 15.163 42.9163 14.7724C42.5257 14.3819 42.5257 13.7487 42.9163 13.3582L48.5731 7.70136L42.9162 2.04451C42.5257 1.65399 42.5257 1.02083 42.9162 0.6303C43.3068 0.239775 43.9399 0.239774 44.3305 0.630297L50.6944 6.99424ZM1.98752 6.70146L49.9873 6.70135L49.9873 8.70135L1.98752 8.70146L1.98752 6.70146Z" fill="url(#paint0_linear_133_59)"/>
<defs>
<linearGradient id="paint0_linear_133_59" x1="1.99376" y1="8.0884" x2="49.9811" y2="7.31446" gradientUnits="userSpaceOnUse">
<stop stop-color="#00E6A9"/>
<stop offset="1" stop-color="#609AFF"/>
</linearGradient>
</defs>
</svg>
