<svg width="32" height="32" viewBox="0 0 32 32" fill="none" xmlns="http://www.w3.org/2000/svg">
<g id="sign">
<g id="Group 1">
<path id="Subtract" opacity="0.2" fill-rule="evenodd" clip-rule="evenodd" d="M30 16C30 22.6274 24.6274 28 18 28C15.4969 28 13.1728 27.2336 11.2496 25.9227C16.1827 25.3078 20 21.0997 20 16C20 10.9003 16.1827 6.69224 11.2496 6.07731C13.1728 4.76639 15.4969 4 18 4C24.6274 4 30 9.37258 30 16Z" fill="#609AFF"/>
<path id="Vector" d="M10 24C14.4183 24 18 20.4183 18 16C18 11.5817 14.4183 8 10 8C5.58172 8 2 11.5817 2 16C2 20.4183 5.58172 24 10 24Z" fill="#00E6A9"/>
<path id="Subtract_2" fill-rule="evenodd" clip-rule="evenodd" d="M16.2487 23.8077C16.8124 23.9336 17.3984 24 18 24C22.4183 24 26 20.4183 26 16C26 11.5817 22.4183 8 18 8C17.3984 8 16.8124 8.0664 16.2487 8.19227C18.5356 10.0249 20 12.8414 20 16C20 19.1586 18.5356 21.9751 16.2487 23.8077Z" fill="#609AFF"/>
</g>
</g>
</svg>
