<svg width="40" height="41" viewBox="0 0 40 41" fill="none" xmlns="http://www.w3.org/2000/svg">
<g id="SVG - Monday.com">
<path id="Vector" d="M30 26.3334C30 26.9964 30.2634 27.6323 30.7322 28.1011C31.2011 28.57 31.837 28.8334 32.5 28.8334C33.163 28.8334 33.7989 28.57 34.2678 28.1011C34.7366 27.6323 35 26.9964 35 26.3334C35 25.6703 34.7366 25.0344 34.2678 24.5656C33.7989 24.0968 33.163 23.8334 32.5 23.8334C31.837 23.8334 31.2011 24.0968 30.7322 24.5656C30.2634 25.0344 30 25.6703 30 26.3334Z" stroke="#609AFF" stroke-width="2" stroke-linecap="round" stroke-linejoin="round"/>
<path id="Vector_2" d="M15.8334 12.1666C16.2605 12.1665 16.6806 12.2758 17.0535 12.4842C17.4265 12.6926 17.7398 12.993 17.9636 13.3569C18.1874 13.7207 18.3142 14.1359 18.332 14.5627C18.3497 14.9895 18.2578 15.4138 18.065 15.795L11.3417 27.585C10.9017 28.33 10.0917 28.8333 9.16669 28.8333C8.72005 28.8334 8.28156 28.7138 7.89679 28.487C7.51203 28.2602 7.19504 27.9345 6.9788 27.5437C6.76257 27.1529 6.65497 26.7113 6.6672 26.2648C6.67943 25.8184 6.81104 25.3833 7.04835 25.005L13.5584 13.6266C13.7577 13.1908 14.0782 12.8215 14.4815 12.5626C14.8849 12.3038 15.3541 12.1663 15.8334 12.1666Z" stroke="#609AFF" stroke-width="2" stroke-linecap="round" stroke-linejoin="round"/>
<path id="Vector_3" d="M27.5 12.1666C27.9272 12.1665 28.3473 12.2758 28.7202 12.4842C29.0931 12.6926 29.4064 12.993 29.6302 13.3569C29.854 13.7207 29.9808 14.1359 29.9986 14.5627C30.0164 14.9895 29.9244 15.4138 29.7316 15.795L23.0083 27.585C22.5683 28.33 21.7583 28.8333 20.8333 28.8333C20.3867 28.8334 19.9482 28.7138 19.5634 28.487C19.1787 28.2602 18.8617 27.9345 18.6454 27.5437C18.4292 27.1529 18.3216 26.7113 18.3338 26.2648C18.3461 25.8184 18.4777 25.3833 18.715 25.005L25.225 13.6266C25.4243 13.1908 25.7448 12.8215 26.1481 12.5626C26.5515 12.3038 27.0207 12.1663 27.5 12.1666Z" stroke="#609AFF" stroke-width="2" stroke-linecap="round" stroke-linejoin="round"/>
</g>
</svg>
