<svg width="40" height="41" viewBox="0 0 40 41" fill="none" xmlns="http://www.w3.org/2000/svg">
<g id="SVG - Slack">
<path id="Vector" d="M26.6667 20.5V10.5C26.6667 9.6159 26.3155 8.76806 25.6904 8.14294C25.0652 7.51782 24.2174 7.16663 23.3333 7.16663C22.4493 7.16663 21.6014 7.51782 20.9763 8.14294C20.3512 8.76806 20 9.6159 20 10.5V20.5H30C30.6593 20.5 31.3037 20.3045 31.8519 19.9382C32.4001 19.5719 32.8273 19.0513 33.0796 18.4422C33.3319 17.8331 33.3979 17.1629 33.2693 16.5163C33.1407 15.8697 32.8232 15.2758 32.357 14.8096C31.8908 14.3434 31.2969 14.026 30.6503 13.8973C30.0037 13.7687 29.3335 13.8347 28.7244 14.087C28.1153 14.3393 27.5947 14.7666 27.2284 15.3147C26.8622 15.8629 26.6667 16.5074 26.6667 17.1666" stroke="#609AFF" stroke-width="2" stroke-linecap="round" stroke-linejoin="round"/>
<path id="Vector_2" d="M20 27.1667H30C30.8841 27.1667 31.7319 26.8155 32.357 26.1904C32.9821 25.5652 33.3333 24.7174 33.3333 23.8333C33.3333 22.9493 32.9821 22.1014 32.357 21.4763C31.7319 20.8512 30.8841 20.5 30 20.5H20V30.5C20 31.1593 20.1955 31.8037 20.5618 32.3519C20.928 32.9001 21.4486 33.3273 22.0577 33.5796C22.6668 33.8319 23.337 33.8979 23.9836 33.7693C24.6302 33.6407 25.2242 33.3232 25.6904 32.857C26.1565 32.3908 26.474 31.7969 26.6026 31.1503C26.7312 30.5037 26.6652 29.8335 26.4129 29.2244C26.1606 28.6153 25.7334 28.0947 25.1852 27.7284C24.6371 27.3622 23.9926 27.1667 23.3333 27.1667" stroke="#609AFF" stroke-width="2" stroke-linecap="round" stroke-linejoin="round"/>
<path id="Vector_3" d="M13.3333 20.5V30.5C13.3333 31.3841 13.6845 32.2319 14.3096 32.857C14.9348 33.4821 15.7826 33.8333 16.6667 33.8333C17.5507 33.8333 18.3986 33.4821 19.0237 32.857C19.6488 32.2319 20 31.3841 20 30.5V20.5H9.99999C9.34072 20.5 8.69625 20.6955 8.14809 21.0618C7.59993 21.428 7.17268 21.9486 6.92039 22.5577C6.6681 23.1668 6.60209 23.837 6.73071 24.4836C6.85932 25.1302 7.17679 25.7242 7.64297 26.1904C8.10914 26.6565 8.70309 26.974 9.34969 27.1026C9.99629 27.2312 10.6665 27.1652 11.2756 26.9129C11.8847 26.6606 12.4053 26.2334 12.7716 25.6852C13.1378 25.1371 13.3333 24.4926 13.3333 23.8333" stroke="#609AFF" stroke-width="2" stroke-linecap="round" stroke-linejoin="round"/>
<path id="Vector_4" d="M20 13.8333H9.99999C9.11593 13.8333 8.26809 14.1845 7.64297 14.8096C7.01785 15.4347 6.66666 16.2826 6.66666 17.1666C6.66666 18.0507 7.01785 18.8985 7.64297 19.5236C8.26809 20.1488 9.11593 20.5 9.99999 20.5H20V10.5C20 9.84069 19.8045 9.19622 19.4382 8.64806C19.0719 8.0999 18.5514 7.67265 17.9423 7.42036C17.3332 7.16807 16.663 7.10206 16.0164 7.23068C15.3698 7.35929 14.7758 7.67676 14.3096 8.14294C13.8435 8.60911 13.526 9.20306 13.3974 9.84966C13.2688 10.4963 13.3348 11.1665 13.5871 11.7756C13.8393 12.3847 14.2666 12.9053 14.8148 13.2715C15.3629 13.6378 16.0074 13.8333 16.6667 13.8333" stroke="#609AFF" stroke-width="2" stroke-linecap="round" stroke-linejoin="round"/>
</g>
</svg>
